  0
SECTION
  2
HEADER
  9
$ACADVER
  1
AC1009
  9
$INSBASE
 10
0.0
 20
0.0
 30
0.0
  9
$EXTMIN
 10
42.913075788555702
 20
55.157510510774948
 30
0.0
  9
$EXTMAX
 10
466.63281612014629
 20
355.17938182808228
 30
0.0
  9
$LIMMIN
 10
0.0
 20
0.0
  9
$LIMMAX
 10
420.0
 20
297.0
  9
$ORTHOMODE
 70
     0
  9
$REGENMODE
 70
     1
  9
$FILLMODE
 70
     1
  9
$QTEXTMODE
 70
     0
  9
$MIRRTEXT
 70
     0
  9
$DRAGMODE
 70
     2
  9
$LTSCALE
 40
1.0
  9
$OSMODE
 70
   423
  9
$ATTMODE
 70
     1
  9
$TEXTSIZE
 40
2.5
  9
$TRACEWID
 40
1.0
  9
$TEXTSTYLE
  7
STANDARD
  9
$CLAYER
  8
0
  9
$CELTYPE
  6
BYLAYER
  9
$CECOLOR
 62
   256
  9
$DIMSCALE
 40
1.0
  9
$DIMASZ
 40
2.5
  9
$DIMEXO
 40
0.625
  9
$DIMDLI
 40
3.75
  9
$DIMRND
 40
0.0
  9
$DIMDLE
 40
0.0
  9
$DIMEXE
 40
1.25
  9
$DIMTP
 40
0.0
  9
$DIMTM
 40
0.0
  9
$DIMTXT
 40
2.5
  9
$DIMCEN
 40
2.5
  9
$DIMTSZ
 40
0.0
  9
$DIMTOL
 70
     0
  9
$DIMLIM
 70
     0
  9
$DIMTIH
 70
     0
  9
$DIMTOH
 70
     0
  9
$DIMSE1
 70
     0
  9
$DIMSE2
 70
     0
  9
$DIMTAD
 70
     1
  9
$DIMZIN
 70
     8
  9
$DIMBLK
  1

  9
$DIMASO
 70
     1
  9
$DIMSHO
 70
     1
  9
$DIMPOST
  1

  9
$DIMAPOST
  1

  9
$DIMALT
 70
     0
  9
$DIMALTD
 70
     3
  9
$DIMALTF
 40
0.03937007874016
  9
$DIMLFAC
 40
1.0
  9
$DIMTOFL
 70
     1
  9
$DIMTVP
 40
0.0
  9
$DIMTIX
 70
     0
  9
$DIMSOXD
 70
     0
  9
$DIMSAH
 70
     0
  9
$DIMBLK1
  1

  9
$DIMBLK2
  1

  9
$DIMSTYLE
  2
ISO-25
  9
$DIMCLRD
 70
     0
  9
$DIMCLRE
 70
     0
  9
$DIMCLRT
 70
     0
  9
$DIMTFAC
 40
1.0
  9
$DIMGAP
 40
0.625
  9
$LUNITS
 70
     2
  9
$LUPREC
 70
     4
  9
$SKETCHINC
 40
1.0
  9
$FILLETRAD
 40
0.0
  9
$AUNITS
 70
     0
  9
$AUPREC
 70
     0
  9
$MENU
  1
.
  9
$ELEVATION
 40
0.0
  9
$PELEVATION
 40
0.0
  9
$THICKNESS
 40
0.0
  9
$LIMCHECK
 70
     0
  9
$BLIPMODE
 70
     0
  9
$CHAMFERA
 40
0.0
  9
$CHAMFERB
 40
0.0
  9
$SKPOLY
 70
     0
  9
$TDCREATE
 40
2458367.6578507409
  9
$TDUPDATE
 40
2458391.5541115282
  9
$TDINDWG
 40
0.9923274074
  9
$TDUSRTIMER
 40
0.9923273148
  9
$USRTIMER
 70
     1
  9
$ANGBASE
 50
0.0
  9
$ANGDIR
 70
     0
  9
$PDMODE
 70
     0
  9
$PDSIZE
 40
0.0
  9
$PLINEWID
 40
0.0
  9
$COORDS
 70
     1
  9
$SPLFRAME
 70
     0
  9
$SPLINETYPE
 70
     6
  9
$SPLINESEGS
 70
     8
  9
$ATTDIA
 70
     1
  9
$ATTREQ
 70
     1
  9
$HANDLING
 70
     1
  9
$HANDSEED
  5
7B6
  9
$SURFTAB1
 70
     6
  9
$SURFTAB2
 70
     6
  9
$SURFTYPE
 70
     6
  9
$SURFU
 70
     6
  9
$SURFV
 70
     6
  9
$UCSNAME
  2

  9
$UCSORG
 10
0.0
 20
0.0
 30
0.0
  9
$UCSXDIR
 10
1.0
 20
0.0
 30
0.0
  9
$UCSYDIR
 10
0.0
 20
1.0
 30
0.0
  9
$PUCSNAME
  2

  9
$PUCSORG
 10
0.0
 20
0.0
 30
0.0
  9
$PUCSXDIR
 10
1.0
 20
0.0
 30
0.0
  9
$PUCSYDIR
 10
0.0
 20
1.0
 30
0.0
  9
$USERI1
 70
     0
  9
$USERI2
 70
     0
  9
$USERI3
 70
     0
  9
$USERI4
 70
     0
  9
$USERI5
 70
     0
  9
$USERR1
 40
0.0
  9
$USERR2
 40
0.0
  9
$USERR3
 40
0.0
  9
$USERR4
 40
0.0
  9
$USERR5
 40
0.0
  9
$WORLDVIEW
 70
     1
  9
$SHADEDGE
 70
     3
  9
$SHADEDIF
 70
    70
  9
$TILEMODE
 70
     1
  9
$MAXACTVP
 70
    64
  9
$PLIMCHECK
 70
     0
  9
$PEXTMIN
 10
0.0
 20
0.0
 30
0.0
  9
$PEXTMAX
 10
0.0
 20
0.0
 30
0.0
  9
$PLIMMIN
 10
0.0
 20
0.0
  9
$PLIMMAX
 10
12.0
 20
9.0
  9
$UNITMODE
 70
     0
  9
$VISRETAIN
 70
     1
  9
$PLINEGEN
 70
     0
  9
$PSLTSCALE
 70
     1
  0
ENDSEC
  0
SECTION
  2
TABLES
  0
TABLE
  2
VPORT
 70
     1
  0
VPORT
  2
*ACTIVE
 70
     0
 10
0.0
 20
0.0
 11
1.0
 21
1.0
 12
85.562563274814011
 22
271.68905897479323
 13
0.0
 23
0.0
 14
10.0
 24
10.0
 15
10.0
 25
10.0
 16
0.0
 26
0.0
 36
1.0
 17
0.0
 27
0.0
 37
0.0
 40
436.31045034386779
 41
2.004932182490752
 42
50.0
 43
0.0
 44
0.0
 50
0.0
 51
0.0
 71
     0
 72
  1000
 73
     1
 74
     3
 75
     0
 76
     1
 77
     0
 78
     0
  0
ENDTAB
  0
TABLE
  2
LTYPE
 70
     1
  0
LTYPE
  2
CONTINUOUS
 70
     0
  3
Solid line
 72
    65
 73
     0
 40
0.0
  0
ENDTAB
  0
TABLE
  2
LAYER
 70
     1
  0
LAYER
  2
0
 70
     0
 62
     7
  6
CONTINUOUS
  0
ENDTAB
  0
TABLE
  2
STYLE
 70
     3
  0
STYLE
  2
STANDARD
 70
     0
 40
0.0
 41
1.0
 50
0.0
 71
     0
 42
2.5
  3
txt
  4

  0
STYLE
  2
ANNOTATIVE
 70
     0
 40
0.0
 41
1.0
 50
0.0
 71
     0
 42
0.2
  3
txt
  4

  0
STYLE
  2
¿ÕÕŒ“¿“»¬Õ€…
 70
     0
 40
0.0
 41
1.0
 50
0.0
 71
     0
 42
2.5
  3
txt
  4

  0
ENDTAB
  0
TABLE
  2
VIEW
 70
     0
  0
ENDTAB
  0
TABLE
  2
UCS
 70
     0
  0
ENDTAB
  0
TABLE
  2
APPID
 70
     9
  0
APPID
  2
ACAD
 70
     0
  0
APPID
  2
ACADANNOTATIVE
 70
     0
  0
APPID
  2
ACAD_PSEXT
 70
     0
  0
APPID
  2
ACADANNOPO
 70
     0
  0
APPID
  2
ACAD_DSTYLE_DIMJAG
 70
     0
  0
APPID
  2
ACAD_DSTYLE_DIMTALN
 70
     0
  0
APPID
  2
ACAD_MLEADERVER
 70
     0
  0
APPID
  2
ACAD_NAV_VCDISPLAY
 70
     0
  0
APPID
  2
ACAD_EXEMPT_FROM_CAD_STANDARDS
 70
     0
  0
ENDTAB
  0
TABLE
  2
DIMSTYLE
 70
     4
  0
DIMSTYLE
  2
STANDARD
 70
     0
  3

  4

  5

  6

  7

 40
1.0
 41
0.18
 42
0.0625
 43
0.38
 44
0.18
 45
0.0
 46
0.0
 47
0.0
 48
0.0
140
0.18
141
0.09
142
0.0
143
25.399999999999999
144
1.0
145
0.0
146
1.0
147
0.09
 71
     0
 72
     0
 73
     1
 74
     1
 75
     0
 76
     0
 77
     0
 78
     0
170
     0
171
     2
172
     0
173
     0
174
     0
175
     0
176
     0
177
     0
178
     0
  0
DIMSTYLE
  2
ANNOTATIVE
 70
     0
  3

  4

  5

  6

  7

 40
1.0
 41
0.18
 42
0.0625
 43
0.38
 44
0.18
 45
0.0
 46
0.0
 47
0.0
 48
0.0
140
0.18
141
0.09
142
0.0
143
25.399999999999999
144
1.0
145
0.0
146
1.0
147
0.09
 71
     0
 72
     0
 73
     1
 74
     1
 75
     0
 76
     0
 77
     0
 78
     0
170
     0
171
     2
172
     0
173
     0
174
     0
175
     0
176
     0
177
     0
178
     0
  0
DIMSTYLE
  2
¿ÕÕŒ“¿“»¬Õ€…
 70
     0
  3

  4

  5

  6

  7

 40
0.0
 41
2.5
 42
0.625
 43
3.75
 44
1.25
 45
0.0
 46
0.0
 47
0.0
 48
0.0
140
2.5
141
2.5
142
0.0
143
0.03937007874016
144
1.0
145
0.0
146
1.0
147
0.625
 71
     0
 72
     0
 73
     0
 74
     0
 75
     0
 76
     0
 77
     1
 78
     8
170
     0
171
     3
172
     1
173
     0
174
     0
175
     0
176
     0
177
     0
178
     0
  0
DIMSTYLE
  2
ISO-25
 70
     0
  3

  4

  5

  6

  7

 40
1.0
 41
2.5
 42
0.625
 43
3.75
 44
1.25
 45
0.0
 46
0.0
 47
0.0
 48
0.0
140
2.5
141
2.5
142
0.0
143
0.03937007874016
144
1.0
145
0.0
146
1.0
147
0.625
 71
     0
 72
     0
 73
     0
 74
     0
 75
     0
 76
     0
 77
     1
 78
     8
170
     0
171
     3
172
     1
173
     0
174
     0
175
     0
176
     0
177
     0
178
     0
  0
ENDTAB
  0
ENDSEC
  0
SECTION
  2
BLOCKS
  0
BLOCK
  8
0
  2
$MODEL_SPACE
 70
     0
 10
0.0
 20
0.0
 30
0.0
  3
$MODEL_SPACE
  1

  0
ENDBLK
  5
6F4
  8
0
  0
BLOCK
 67
     1
  8
0
  2
$PAPER_SPACE
 70
     0
 10
0.0
 20
0.0
 30
0.0
  3
$PAPER_SPACE
  1

  0
ENDBLK
  5
6F0
 67
     1
  8
0
  0
ENDSEC
  0
SECTION
  2
ENTITIES
  0
CIRCLE
  5
2FF
  8
0
 10
253.63281612014629
 20
276.98890230025182
 30
0.0
 40
1.6000000000000001
  0
CIRCLE
  5
300
  8
0
 10
462.63281612014629
 20
276.98890230025182
 30
0.0
 40
1.6000000000000001
  0
CIRCLE
  5
301
  8
0
 10
462.63281612014629
 20
67.988902300251283
 30
0.0
 40
1.6000000000000001
  0
CIRCLE
  5
302
  8
0
 10
253.63281612014629
 20
67.988902300251283
 30
0.0
 40
1.6000000000000001
  0
CIRCLE
  5
303
  8
0
 10
462.63281612014629
 20
172.48890230025131
 30
0.0
 40
1.6000000000000001
  0
CIRCLE
  5
338
  8
0
 10
300.33281612014662
 20
252.4889023002516
 30
0.0
 40
1.25
  0
CIRCLE
  5
339
  8
0
 10
300.33281612014662
 20
216.48890230025199
 30
0.0
 40
1.25
  0
CIRCLE
  5
33A
  8
0
 10
300.33281612014662
 20
92.488902300251411
 30
0.0
 40
1.25
  0
CIRCLE
  5
33B
  8
0
 10
300.33281612014662
 20
128.4889023002516
 30
0.0
 40
1.25
  0
CIRCLE
  5
33C
  8
0
 10
411.93281612014641
 20
252.4889023002516
 30
0.0
 40
1.25
  0
CIRCLE
  5
33D
  8
0
 10
411.93281612014641
 20
216.48890230025199
 30
0.0
 40
1.25
  0
CIRCLE
  5
33E
  8
0
 10
411.93281612014641
 20
92.488902300251411
 30
0.0
 40
1.25
  0
CIRCLE
  5
33F
  8
0
 10
411.93281612014641
 20
128.4889023002516
 30
0.0
 40
1.25
  0
CIRCLE
  5
41E
  8
0
  6
CONTINUOUS
 10
66.591842296632166
 20
183.47121900976211
 30
0.0
 40
1.75
  0
CIRCLE
  5
41F
  8
0
  6
CONTINUOUS
 10
89.219259294590984
 20
160.84380201179181
 30
0.0
 40
1.75
  0
CIRCLE
  5
420
  8
0
  6
CONTINUOUS
 10
89.219259294590984
 20
183.47121900976211
 30
0.0
 40
1.75
  0
CIRCLE
  5
421
  8
0
  6
CONTINUOUS
 10
77.905550795618865
 20
172.1575105107749
 30
0.0
 40
10.75
  0
CIRCLE
  5
422
  8
0
  6
CONTINUOUS
 10
66.591842296632166
 20
160.84380201179181
 30
0.0
 40
1.75
  0
CIRCLE
  5
423
  8
0
  6
CONTINUOUS
 10
177.90555079561909
 20
172.1575105107749
 30
0.0
 40
11.5
  0
ARC
  5
424
  8
0
 10
72.105550795618683
 20
103.1575105107749
 30
0.0
 40
1.5999999999999091
 50
180.0
 51
0.0
  0
LINE
  5
425
  8
0
 10
73.705550795618592
 20
103.1575105107749
 30
0.0
 11
73.705550795618592
 21
107.1575105107749
 31
0.0
  0
ARC
  5
426
  8
0
 10
72.105550795618683
 20
107.1575105107749
 30
0.0
 40
1.5999999999999091
 50
0.0
 51
180.0
  0
LINE
  5
427
  8
0
 10
70.50555079561876
 20
107.1575105107749
 30
0.0
 11
70.50555079561876
 21
103.1575105107749
 31
0.0
  0
ARC
  5
428
  8
0
 10
72.105550795618683
 20
67.157510510774955
 30
0.0
 40
1.5999999999999091
 50
180.0
 51
0.0
  0
LINE
  5
429
  8
0
 10
73.705550795618592
 20
67.157510510774955
 30
0.0
 11
73.705550795618592
 21
71.157510510774955
 31
0.0
  0
ARC
  5
42A
  8
0
 10
72.105550795618683
 20
71.157510510774955
 30
0.0
 40
1.5999999999999091
 50
0.0
 51
180.0
  0
LINE
  5
42B
  8
0
 10
70.50555079561876
 20
71.157510510774955
 30
0.0
 11
70.50555079561876
 21
67.157510510774955
 31
0.0
  0
CIRCLE
  5
42C
  8
0
  6
CONTINUOUS
 10
189.21925929460571
 20
183.47121900976211
 30
0.0
 40
1.75
  0
CIRCLE
  5
42D
  8
0
  6
CONTINUOUS
 10
166.591842296647
 20
160.84380201179181
 30
0.0
 40
1.75
  0
CIRCLE
  5
42E
  8
0
  6
CONTINUOUS
 10
166.591842296647
 20
183.47121900976211
 30
0.0
 40
1.75
  0
CIRCLE
  5
42F
  8
0
  6
CONTINUOUS
 10
189.21925929460571
 20
160.84380201179181
 30
0.0
 40
1.75
  0
CIRCLE
  5
430
  8
0
  6
CONTINUOUS
 10
133.56240504511061
 20
117.00065626128359
 30
0.0
 40
1.499999999999974
  0
CIRCLE
  5
431
  8
0
  6
CONTINUOUS
 10
127.9055507956182
 20
122.65751051077579
 30
0.0
 40
5.25
  0
CIRCLE
  5
432
  8
0
  6
CONTINUOUS
 10
122.2486965461237
 20
128.31436476027051
 30
0.0
 40
1.499999999999974
  0
CIRCLE
  5
433
  8
0
  6
CONTINUOUS
 10
133.56240504511041
 20
128.31436476026829
 30
0.0
 40
1.5000000000000191
  0
CIRCLE
  5
434
  8
0
  6
CONTINUOUS
 10
122.2486965461257
 20
117.0006562612834
 30
0.0
 40
1.499999999999974
  0
CIRCLE
  5
435
  8
0
  6
CONTINUOUS
 10
127.9055507956175
 20
138.65751051077879
 30
0.0
 40
2.0
  0
CIRCLE
  5
436
  8
0
  6
CONTINUOUS
 10
127.9055507956257
 20
106.6575105107861
 30
0.0
 40
2.0
  0
CIRCLE
  5
437
  8
0
  6
CONTINUOUS
 10
111.9055507956252
 20
122.65751051078649
 30
0.0
 40
2.0
  0
CIRCLE
  5
438
  8
0
  6
CONTINUOUS
 10
143.9055507956179
 20
122.65751051077859
 30
0.0
 40
2.0
  0
ARC
  5
439
  8
0
 10
183.70555079561791
 20
103.1575105107749
 30
0.0
 40
1.5999999999999091
 50
180.0
 51
0.0
  0
LINE
  5
43A
  8
0
 10
182.10555079561789
 20
103.1575105107749
 30
0.0
 11
182.10555079561789
 21
107.1575105107749
 31
0.0
  0
ARC
  5
43B
  8
0
 10
183.70555079561791
 20
107.1575105107749
 30
0.0
 40
1.5999999999999091
 50
0.0
 51
180.0
  0
LINE
  5
43C
  8
0
 10
185.30555079561771
 20
107.1575105107749
 30
0.0
 11
185.30555079561771
 21
103.1575105107749
 31
0.0
  0
ARC
  5
43D
  8
0
 10
183.70555079561791
 20
67.157510510774955
 30
0.0
 40
1.5999999999999091
 50
180.0
 51
0.0
  0
LINE
  5
43E
  8
0
 10
182.10555079561789
 20
67.157510510774955
 30
0.0
 11
182.10555079561789
 21
71.157510510774955
 31
0.0
  0
ARC
  5
43F
  8
0
 10
183.70555079561791
 20
71.157510510774955
 30
0.0
 40
1.5999999999999091
 50
0.0
 51
180.0
  0
LINE
  5
440
  8
0
 10
185.30555079561771
 20
71.157510510774955
 30
0.0
 11
185.30555079561771
 21
67.157510510774955
 31
0.0
  0
LINE
  5
441
  8
0
 10
125.7842304520593
 20
145.9920342899313
 30
0.0
 11
104.57102701646291
 21
124.7788308543347
 31
0.0
  0
LINE
  5
442
  8
0
 10
104.57102701646291
 20
120.5361901672151
 30
0.0
 11
104.57102701646291
 21
124.7788308543347
 31
0.0
  0
LINE
  5
443
  8
0
 10
104.57102701646291
 20
120.5361901672151
 30
0.0
 11
125.78423045205911
 21
99.322986731619068
 31
0.0
  0
LINE
  5
444
  8
0
 10
130.02687113917841
 20
99.322986731619267
 30
0.0
 11
125.78423045205911
 21
99.322986731619068
 31
0.0
  0
LINE
  5
445
  8
0
 10
130.02687113917841
 20
99.322986731619267
 30
0.0
 11
151.2400745747747
 21
120.53619016721559
 31
0.0
  0
LINE
  5
446
  8
0
 10
151.2400745747747
 20
124.7788308543349
 30
0.0
 11
151.2400745747747
 21
120.53619016721559
 31
0.0
  0
LINE
  5
447
  8
0
 10
151.2400745747747
 20
124.7788308543349
 30
0.0
 11
130.02687113917841
 21
145.9920342899315
 31
0.0
  0
LINE
  5
448
  8
0
 10
125.7842304520593
 20
145.9920342899313
 30
0.0
 11
130.02687113917841
 21
145.9920342899315
 31
0.0
  0
LINE
  5
449
  8
0
 10
211.105550795618
 20
58.157510510774948
 30
0.0
 11
211.105550795618
 21
58.157510510774948
 31
0.0
  0
CIRCLE
  5
455
  8
0
 10
214.90555079561889
 20
178.15751051077771
 30
0.0
 40
1.25
  0
CIRCLE
  5
51E
  8
0
 10
193.9055507956221
 20
172.1575105107749
 30
0.0
 40
1.75
  0
CIRCLE
  5
51F
  8
0
 10
161.90555079561611
 20
172.1575105107749
 30
0.0
 40
1.75
  0
CIRCLE
  5
5D3
  8
0
  6
CONTINUOUS
 10
64.799367289569773
 20
348.49309032706992
 30
0.0
 40
1.75
  0
CIRCLE
  5
5D4
  8
0
  6
CONTINUOUS
 10
87.426784287528548
 20
325.86567332909982
 30
0.0
 40
1.75
  0
CIRCLE
  5
5D5
  8
0
  6
CONTINUOUS
 10
87.426784287528548
 20
348.49309032706992
 30
0.0
 40
1.75
  0
CIRCLE
  5
5D6
  8
0
  6
CONTINUOUS
 10
76.113075788556458
 20
337.1793818280828
 30
0.0
 40
10.75
  0
CIRCLE
  5
5D7
  8
0
  6
CONTINUOUS
 10
64.799367289569773
 20
325.86567332909982
 30
0.0
 40
1.75
  0
CIRCLE
  5
5D8
  8
0
  6
CONTINUOUS
 10
176.1130757885567
 20
337.1793818280828
 30
0.0
 40
11.5
  0
ARC
  5
5D9
  8
0
 10
70.313075788556262
 20
268.1793818280828
 30
0.0
 40
1.5999999999999091
 50
180.0
 51
0.0
  0
LINE
  5
5DA
  8
0
 10
71.913075788556171
 20
268.1793818280828
 30
0.0
 11
71.913075788556171
 21
272.1793818280828
 31
0.0
  0
ARC
  5
5DB
  8
0
 10
70.313075788556262
 20
272.1793818280828
 30
0.0
 40
1.5999999999999091
 50
0.0
 51
180.0
  0
LINE
  5
5DC
  8
0
 10
68.713075788556353
 20
272.1793818280828
 30
0.0
 11
68.713075788556353
 21
268.1793818280828
 31
0.0
  0
ARC
  5
5DD
  8
0
 10
70.313075788556262
 20
232.1793818280828
 30
0.0
 40
1.5999999999999091
 50
180.0
 51
0.0
  0
LINE
  5
5DE
  8
0
 10
71.913075788556171
 20
232.1793818280828
 30
0.0
 11
71.913075788556171
 21
236.1793818280828
 31
0.0
  0
ARC
  5
5DF
  8
0
 10
70.313075788556262
 20
236.1793818280828
 30
0.0
 40
1.5999999999999091
 50
0.0
 51
180.0
  0
LINE
  5
5E0
  8
0
 10
68.713075788556353
 20
236.1793818280828
 30
0.0
 11
68.713075788556353
 21
232.1793818280828
 31
0.0
  0
CIRCLE
  5
5E1
  8
0
  6
CONTINUOUS
 10
187.42678428754331
 20
348.49309032706992
 30
0.0
 40
1.75
  0
CIRCLE
  5
5E2
  8
0
  6
CONTINUOUS
 10
164.7993672895845
 20
325.86567332909982
 30
0.0
 40
1.75
  0
CIRCLE
  5
5E3
  8
0
  6
CONTINUOUS
 10
164.7993672895845
 20
348.49309032706992
 30
0.0
 40
1.75
  0
CIRCLE
  5
5E4
  8
0
  6
CONTINUOUS
 10
187.42678428754331
 20
325.86567332909982
 30
0.0
 40
1.75
  0
CIRCLE
  5
5E5
  8
0
  6
CONTINUOUS
 10
131.76993003804819
 20
282.02252757859151
 30
0.0
 40
1.499999999999974
  0
CIRCLE
  5
5E6
  8
0
  6
CONTINUOUS
 10
126.1130757885557
 20
287.67938182808371
 30
0.0
 40
5.25
  0
CIRCLE
  5
5E7
  8
0
  6
CONTINUOUS
 10
120.4562215390613
 20
293.33623607757841
 30
0.0
 40
1.499999999999974
  0
CIRCLE
  5
5E8
  8
0
  6
CONTINUOUS
 10
131.7699300380479
 20
293.33623607757607
 30
0.0
 40
1.5000000000000191
  0
CIRCLE
  5
5E9
  8
0
  6
CONTINUOUS
 10
120.45622153906331
 20
282.02252757859122
 30
0.0
 40
1.499999999999974
  0
CIRCLE
  5
5EA
  8
0
  6
CONTINUOUS
 10
126.11307578855499
 20
303.6793818280866
 30
0.0
 40
2.0
  0
CIRCLE
  5
5EB
  8
0
  6
CONTINUOUS
 10
126.11307578856329
 20
271.67938182809388
 30
0.0
 40
2.0
  0
CIRCLE
  5
5EC
  8
0
  6
CONTINUOUS
 10
110.1130757885628
 20
287.67938182809439
 30
0.0
 40
2.0
  0
CIRCLE
  5
5ED
  8
0
  6
CONTINUOUS
 10
142.11307578855551
 20
287.67938182808638
 30
0.0
 40
2.0
  0
ARC
  5
5EE
  8
0
 10
181.9130757885554
 20
268.1793818280828
 30
0.0
 40
1.5999999999999091
 50
180.0
 51
0.0
  0
LINE
  5
5EF
  8
0
 10
180.31307578855561
 20
268.1793818280828
 30
0.0
 11
180.31307578855561
 21
272.1793818280828
 31
0.0
  0
ARC
  5
5F0
  8
0
 10
181.9130757885554
 20
272.1793818280828
 30
0.0
 40
1.5999999999999091
 50
0.0
 51
180.0
  0
LINE
  5
5F1
  8
0
 10
183.5130757885554
 20
272.1793818280828
 30
0.0
 11
183.5130757885554
 21
268.1793818280828
 31
0.0
  0
ARC
  5
5F2
  8
0
 10
181.9130757885554
 20
232.1793818280828
 30
0.0
 40
1.5999999999999091
 50
180.0
 51
0.0
  0
LINE
  5
5F3
  8
0
 10
180.31307578855561
 20
232.1793818280828
 30
0.0
 11
180.31307578855561
 21
236.1793818280828
 31
0.0
  0
ARC
  5
5F4
  8
0
 10
181.9130757885554
 20
236.1793818280828
 30
0.0
 40
1.5999999999999091
 50
0.0
 51
180.0
  0
LINE
  5
5F5
  8
0
 10
183.5130757885554
 20
236.1793818280828
 30
0.0
 11
183.5130757885554
 21
232.1793818280828
 31
0.0
  0
LINE
  5
5F6
  8
0
 10
123.9917554449969
 20
311.01390560723922
 30
0.0
 11
102.7785520094005
 21
289.80070217164263
 31
0.0
  0
LINE
  5
5F7
  8
0
 10
102.7785520094005
 20
285.55806148452302
 30
0.0
 11
102.7785520094005
 21
289.80070217164263
 31
0.0
  0
LINE
  5
5F8
  8
0
 10
102.7785520094005
 20
285.55806148452302
 30
0.0
 11
123.9917554449966
 21
264.34485804892688
 31
0.0
  0
LINE
  5
5F9
  8
0
 10
128.23439613211599
 20
264.34485804892711
 30
0.0
 11
123.9917554449966
 21
264.34485804892688
 31
0.0
  0
LINE
  5
5FA
  8
0
 10
128.23439613211599
 20
264.34485804892711
 30
0.0
 11
149.4475995677123
 21
285.55806148452348
 31
0.0
  0
LINE
  5
5FB
  8
0
 10
149.4475995677123
 20
289.8007021716428
 30
0.0
 11
149.4475995677123
 21
285.55806148452348
 31
0.0
  0
LINE
  5
5FC
  8
0
 10
149.4475995677123
 20
289.8007021716428
 30
0.0
 11
128.23439613211599
 21
311.01390560723939
 31
0.0
  0
LINE
  5
5FD
  8
0
 10
123.9917554449969
 20
311.01390560723922
 30
0.0
 11
128.23439613211599
 21
311.01390560723939
 31
0.0
  0
CIRCLE
  5
60A
  8
0
 10
213.1130757885565
 20
343.17938182808552
 30
0.0
 40
1.25
  0
CIRCLE
  5
60C
  8
0
 10
192.11307578855971
 20
337.1793818280828
 30
0.0
 40
1.75
  0
CIRCLE
  5
60D
  8
0
 10
160.1130757885536
 20
337.1793818280828
 30
0.0
 40
1.75
  0
POLYLINE
  5
708
  8
0
 66
     1
 10
0.0
 20
0.0
 30
0.0
 70
     1
  0
VERTEX
  5
75D
  8
0
 10
295.375456807266
 20
271.07468873787838
 30
0.0
 42
0.1989123673796228
  0
VERTEX
  5
75E
  8
0
 10
296.78967036963883
 20
270.48890230025182
 30
0.0
  0
VERTEX
  5
75F
  8
0
 10
419.47596187065392
 20
270.48890230025171
 30
0.0
 42
0.1989123673796372
  0
VERTEX
  5
760
  8
0
 10
420.89017543302629
 20
271.07468873787838
 30
0.0
  0
VERTEX
  5
761
  8
0
 10
430.21860255777358
 20
280.4031158626255
 30
0.0
 42
-0.1989123673796727
  0
VERTEX
  5
762
  8
0
 10
431.63281612014629
 20
280.98890230025182
 30
0.0
  0
VERTEX
  5
763
  8
0
 10
464.63281612014629
 20
280.98890230025182
 30
0.0
 42
-0.4142135623730951
  0
VERTEX
  5
764
  8
0
 10
466.63281612014629
 20
278.98890230025182
 30
0.0
  0
VERTEX
  5
765
  8
0
 10
466.63281612014629
 20
235.98890230025151
 30
0.0
 42
-0.1989123673795913
  0
VERTEX
  5
766
  8
0
 10
466.04702968252002
 20
234.57468873787909
 30
0.0
  0
VERTEX
  5
767
  8
0
 10
456.71860255777341
 20
225.2462616131329
 30
0.0
 42
0.1989123673795998
  0
VERTEX
  5
768
  8
0
 10
456.13281612014629
 20
223.83204805075911
 30
0.0
  0
VERTEX
  5
769
  8
0
 10
456.13281612014617
 20
194.64575654974439
 30
0.0
 42
0.1989123673796245
  0
VERTEX
  5
76A
  8
0
 10
456.71860255777278
 20
193.2315429873712
 30
0.0
  0
VERTEX
  5
76B
  8
0
 10
466.04702968251962
 20
183.90311586262541
 30
0.0
 42
-0.1989123673796054
  0
VERTEX
  5
76C
  8
0
 10
466.63281612014629
 20
182.48890230025151
 30
0.0
  0
VERTEX
  5
76D
  8
0
 10
466.63281612014612
 20
162.48890230025191
 30
0.0
 42
-0.1989123673796054
  0
VERTEX
  5
76E
  8
0
 10
466.04702968252002
 20
161.07468873787909
 30
0.0
  0
VERTEX
  5
76F
  8
0
 10
456.71860255777352
 20
151.74626161313279
 30
0.0
 42
0.1989123673796329
  0
VERTEX
  5
770
  8
0
 10
456.13281612014629
 20
150.33204805075951
 30
0.0
  0
VERTEX
  5
771
  8
0
 10
456.13281612014617
 20
121.14575654974411
 30
0.0
 42
0.1989123673796162
  0
VERTEX
  5
772
  8
0
 10
456.71860255777278
 20
119.7315429873715
 30
0.0
  0
VERTEX
  5
773
  8
0
 10
466.04702968251939
 20
110.4031158626249
 30
0.0
 42
-0.1989123673796391
  0
VERTEX
  5
774
  8
0
 10
466.63281612014629
 20
108.9889023002515
 30
0.0
  0
VERTEX
  5
775
  8
0
 10
466.63281612014629
 20
65.98890230025151
 30
0.0
 42
-0.4142135623731117
  0
VERTEX
  5
776
  8
0
 10
464.63281612014629
 20
63.988902300251283
 30
0.0
  0
VERTEX
  5
777
  8
0
 10
431.63281612014612
 20
63.988902300251269
 30
0.0
 42
-0.1989123673796453
  0
VERTEX
  5
778
  8
0
 10
430.21860255777341
 20
64.574688737878631
 30
0.0
  0
VERTEX
  5
779
  8
0
 10
420.8901754330264
 20
73.90311586262473
 30
0.0
 42
0.1989123673796802
  0
VERTEX
  5
77A
  8
0
 10
419.47596187065392
 20
74.48890230025151
 30
0.0
  0
VERTEX
  5
77B
  8
0
 10
296.78967036963883
 20
74.48890230025151
 30
0.0
 42
0.1989123673796608
  0
VERTEX
  5
77C
  8
0
 10
295.37545680726538
 20
73.90311586262483
 30
0.0
  0
VERTEX
  5
77D
  8
0
 10
286.04702968251968
 20
64.574688737878603
 30
0.0
 42
-0.1989123673796467
  0
VERTEX
  5
77E
  8
0
 10
284.6328161201464
 20
63.988902300251283
 30
0.0
  0
VERTEX
  5
77F
  8
0
 10
251.63281612014629
 20
63.988902300251283
 30
0.0
 42
-0.4142135623731121
  0
VERTEX
  5
780
  8
0
 10
249.63281612014629
 20
65.98890230025151
 30
0.0
  0
VERTEX
  5
781
  8
0
 10
249.6328161201464
 20
108.9889023002515
 30
0.0
 42
-0.1989123673796054
  0
VERTEX
  5
782
  8
0
 10
250.21860255777281
 20
110.4031158626248
 30
0.0
  0
VERTEX
  5
783
  8
0
 10
259.54702968251928
 20
119.7315429873715
 30
0.0
 42
0.1989123673796098
  0
VERTEX
  5
784
  8
0
 10
260.13281612014629
 20
121.14575654974399
 30
0.0
  0
VERTEX
  5
785
  8
0
 10
260.13281612014629
 20
223.83204805075911
 30
0.0
 42
0.1989123673796149
  0
VERTEX
  5
786
  8
0
 10
259.54702968251922
 20
225.2462616131329
 30
0.0
  0
VERTEX
  5
787
  8
0
 10
250.21860255777281
 20
234.57468873787909
 30
0.0
 42
-0.1989123673796245
  0
VERTEX
  5
788
  8
0
 10
249.63281612014629
 20
235.9889023002516
 30
0.0
  0
VERTEX
  5
789
  8
0
 10
249.63281612014629
 20
278.98890230025182
 30
0.0
 42
-0.4142135623730951
  0
VERTEX
  5
78A
  8
0
 10
251.63281612014629
 20
280.98890230025182
 30
0.0
  0
VERTEX
  5
78B
  8
0
 10
284.6328161201464
 20
280.98890230025182
 30
0.0
 42
-0.1989123673796522
  0
VERTEX
  5
78C
  8
0
 10
286.04702968251979
 20
280.4031158626255
 30
0.0
  0
SEQEND
  5
78D
  8
0
  0
POLYLINE
  5
70B
  8
0
 66
     1
 10
0.0
 20
0.0
 30
0.0
 70
     1
  0
VERTEX
  5
78E
  8
0
 10
366.61809749438368
 20
120.7286859173954
 30
0.0
 42
-0.4142135623730498
  0
VERTEX
  5
78F
  8
0
 10
349.64753474590759
 20
120.72868591739601
 30
0.0
  0
VERTEX
  5
790
  8
0
 10
306.37259973729181
 20
164.00362092601259
 30
0.0
 42
-0.4142135623731387
  0
VERTEX
  5
791
  8
0
 10
306.37259973729118
 20
180.9741836744906
 30
0.0
  0
VERTEX
  5
792
  8
0
 10
349.64753474590759
 20
224.2491186831065
 30
0.0
 42
-0.4142135623730511
  0
VERTEX
  5
793
  8
0
 10
366.61809749438379
 20
224.24911868310701
 30
0.0
  0
VERTEX
  5
794
  8
0
 10
409.89303250300179
 20
180.9741836744906
 30
0.0
 42
-0.4142135623731406
  0
VERTEX
  5
795
  8
0
 10
409.89303250300122
 20
164.0036209260125
 30
0.0
  0
SEQEND
  5
796
  8
0
  0
POLYLINE
  5
70C
  8
0
 66
     1
 10
0.0
 20
0.0
 30
0.0
 70
     1
  0
VERTEX
  5
797
  8
0
 10
209.31307578855561
 20
352.17938182808228
 30
0.0
  0
VERTEX
  5
798
  8
0
 10
209.31307578855561
 20
348.42938182808552
 30
0.0
 42
0.4142135623730951
  0
VERTEX
  5
799
  8
0
 10
211.31307578855561
 20
346.42938182808552
 30
0.0
  0
VERTEX
  5
79A
  8
0
 10
212.6130757885565
 20
346.42938182808552
 30
0.0
 42
-0.9999999999999998
  0
VERTEX
  5
79B
  8
0
 10
212.6130757885565
 20
339.92938182808552
 30
0.0
  0
VERTEX
  5
79C
  8
0
 10
211.31307578855561
 20
339.92938182808552
 30
0.0
 42
0.4142135623730951
  0
VERTEX
  5
79D
  8
0
 10
209.31307578855561
 20
337.92938182808552
 30
0.0
  0
VERTEX
  5
79E
  8
0
 10
209.31307578855561
 20
223.1793818280828
 30
0.0
  0
VERTEX
  5
79F
  8
0
 10
209.31307578855561
 20
223.1793818280828
 30
0.0
 42
-0.4142135623730951
  0
VERTEX
  5
7A0
  8
0
 10
206.31307578855561
 20
220.1793818280828
 30
0.0
  0
VERTEX
  5
7A1
  8
0
 10
45.913075788555702
 20
220.1793818280828
 30
0.0
 42
-0.4142135623730951
  0
VERTEX
  5
7A2
  8
0
 10
42.913075788555702
 20
223.1793818280828
 30
0.0
  0
VERTEX
  5
7A3
  8
0
 10
42.913075788555723
 20
352.17938182808228
 30
0.0
 42
-0.4142135623730951
  0
VERTEX
  5
7A4
  8
0
 10
45.913075788555702
 20
355.17938182808228
 30
0.0
  0
VERTEX
  5
7A5
  8
0
 10
206.31307578855561
 20
355.17938182808228
 30
0.0
 42
-0.4142135623730951
  0
SEQEND
  5
7A6
  8
0
  0
POLYLINE
  5
70D
  8
0
 66
     1
 10
0.0
 20
0.0
 30
0.0
 70
     1
  0
VERTEX
  5
7A7
  8
0
 10
47.70555079561813
 20
55.157510510774948
 30
0.0
 42
-0.4142135623730951
  0
VERTEX
  5
7A8
  8
0
 10
44.70555079561813
 20
58.157510510774948
 30
0.0
  0
VERTEX
  5
7A9
  8
0
 10
44.70555079561813
 20
187.1575105107745
 30
0.0
 42
-0.4142135623730951
  0
VERTEX
  5
7AA
  8
0
 10
47.70555079561813
 20
190.1575105107745
 30
0.0
  0
VERTEX
  5
7AB
  8
0
 10
208.105550795618
 20
190.1575105107745
 30
0.0
 42
-0.4142135623730951
  0
VERTEX
  5
7AC
  8
0
 10
211.105550795618
 20
187.1575105107745
 30
0.0
  0
VERTEX
  5
7AD
  8
0
 10
211.105550795618
 20
183.40751051077771
 30
0.0
 42
0.4142135623730951
  0
VERTEX
  5
7AE
  8
0
 10
213.105550795618
 20
181.40751051077771
 30
0.0
  0
VERTEX
  5
7AF
  8
0
 10
214.40555079561881
 20
181.40751051077771
 30
0.0
 42
-0.9999999999999998
  0
VERTEX
  5
7B0
  8
0
 10
214.40555079561881
 20
174.90751051077771
 30
0.0
  0
VERTEX
  5
7B1
  8
0
 10
213.105550795618
 20
174.90751051077771
 30
0.0
 42
0.4142135623730951
  0
VERTEX
  5
7B2
  8
0
 10
211.105550795618
 20
172.90751051077771
 30
0.0
  0
VERTEX
  5
7B3
  8
0
 10
211.105550795618
 20
58.157510510774948
 30
0.0
 42
-0.4142135623730951
  0
VERTEX
  5
7B4
  8
0
 10
208.105550795618
 20
55.157510510774948
 30
0.0
  0
SEQEND
  5
7B5
  8
0
  0
ENDSEC
  0
EOF
